HIERARCHY
ROOT hips
{
	OFFSET 0.000000 8.742657 0.131730
	CHANNELS 6 Xposition Yposition Zposition Xrotation Yrotation Zrotation
	JOINT thigh_L
	{
		OFFSET 1.013500 -0.080285 -0.082294
		CHANNELS 6 Xposition Yposition Zposition Xrotation Yrotation Zrotation
		JOINT shin_L
		{
			OFFSET 0.411173 -3.910090 0.324175
			CHANNELS 3 Xrotation Yrotation Zrotation
			JOINT foot_L
			{
				OFFSET 0.381096 -4.055360 -0.146870
				CHANNELS 3 Xrotation Yrotation Zrotation
				JOINT toe_L
				{
					OFFSET 0.054620 -0.601734 1.167894
					CHANNELS 3 Xrotation Yrotation Zrotation
					End Site
					{
						OFFSET 0.011011 -0.000001 0.377995
					}
				}
			}
		}
	}
	JOINT thigh_R
	{
		OFFSET -1.013500 -0.080285 -0.082294
		CHANNELS 6 Xposition Yposition Zposition Xrotation Yrotation Zrotation
		JOINT shin_R
		{
			OFFSET -0.411173 -3.910090 0.324175
			CHANNELS 3 Xrotation Yrotation Zrotation
			JOINT foot_R
			{
				OFFSET -0.381096 -4.055360 -0.146870
				CHANNELS 3 Xrotation Yrotation Zrotation
				JOINT toe_R
				{
					OFFSET -0.054620 -0.601734 1.167894
					CHANNELS 3 Xrotation Yrotation Zrotation
					End Site
					{
						OFFSET -0.011011 -0.000001 0.377995
					}
				}
			}
		}
	}
	JOINT spine
	{
		OFFSET 0.000000 1.460831 -0.232459
		CHANNELS 6 Xposition Yposition Zposition Xrotation Yrotation Zrotation
		JOINT chest
		{
			OFFSET 0.000000 0.750205 0.017196
			CHANNELS 3 Xrotation Yrotation Zrotation
			JOINT clavicle_R
			{
				OFFSET -0.268666 2.469748 0.772591
				CHANNELS 6 Xposition Yposition Zposition Xrotation Yrotation Zrotation
				JOINT upper_arm_R
				{
					OFFSET -1.410498 -0.206594 -0.496195
					CHANNELS 3 Xrotation Yrotation Zrotation
					JOINT forearm_R
					{
						OFFSET -1.634144 -1.818115 0.008407
						CHANNELS 3 Xrotation Yrotation Zrotation
						JOINT hand_R
						{
							OFFSET -1.219589 -1.242461 1.631512
							CHANNELS 3 Xrotation Yrotation Zrotation
							JOINT thumb_02_R
							{
								OFFSET 0.189474 -0.186683 0.653441
								CHANNELS 6 Xposition Yposition Zposition Xrotation Yrotation Zrotation
								JOINT thumb_03_R
								{
									OFFSET 0.116365 -0.165904 0.319274
									CHANNELS 3 Xrotation Yrotation Zrotation
									End Site
									{
										OFFSET 0.109338 -0.190351 0.307917
									}
								}
							}
							JOINT f_ring_01_R
							{
								OFFSET -0.444126 -0.636956 0.569504
								CHANNELS 6 Xposition Yposition Zposition Xrotation Yrotation Zrotation
								End Site
								{
									OFFSET -0.154599 -0.286303 0.192693
								}
							}
							JOINT f_index_01_R
							{
								OFFSET -0.233162 -0.434066 0.929420
								CHANNELS 6 Xposition Yposition Zposition Xrotation Yrotation Zrotation
								End Site
								{
									OFFSET -0.054065 -0.214798 0.306496
								}
							}
						}
					}
				}
			}
			JOINT clavicle_L
			{
				OFFSET 0.268666 2.469748 0.772591
				CHANNELS 6 Xposition Yposition Zposition Xrotation Yrotation Zrotation
				JOINT upper_arm_L
				{
					OFFSET 1.410498 -0.206594 -0.496195
					CHANNELS 3 Xrotation Yrotation Zrotation
					JOINT forearm_L
					{
						OFFSET 1.634144 -1.818115 0.008407
						CHANNELS 3 Xrotation Yrotation Zrotation
						JOINT hand_L
						{
							OFFSET 1.219589 -1.242461 1.631512
							CHANNELS 3 Xrotation Yrotation Zrotation
							JOINT thumb_02_L
							{
								OFFSET -0.189466 -0.186597 0.653489
								CHANNELS 6 Xposition Yposition Zposition Xrotation Yrotation Zrotation
								JOINT thumb_03_L
								{
									OFFSET -0.116566 -0.165308 0.319580
									CHANNELS 3 Xrotation Yrotation Zrotation
									End Site
									{
										OFFSET -0.109350 -0.190349 0.307914
									}
								}
							}
							JOINT f_ring_01_L
							{
								OFFSET 0.444126 -0.636956 0.569504
								CHANNELS 6 Xposition Yposition Zposition Xrotation Yrotation Zrotation
								End Site
								{
									OFFSET 0.154599 -0.286303 0.192693
								}
							}
							JOINT f_index_01_L
							{
								OFFSET 0.233162 -0.434066 0.929420
								CHANNELS 6 Xposition Yposition Zposition Xrotation Yrotation Zrotation
								End Site
								{
									OFFSET 0.054065 -0.214798 0.306496
								}
							}
						}
					}
				}
			}
			JOINT neck
			{
				OFFSET 0.000000 3.188241 0.135066
				CHANNELS 6 Xposition Yposition Zposition Xrotation Yrotation Zrotation
				JOINT head
				{
					OFFSET 0.000000 1.108006 0.018376
					CHANNELS 3 Xrotation Yrotation Zrotation
					JOINT jaw
					{
						OFFSET 0.000000 -0.033920 0.494627
						CHANNELS 6 Xposition Yposition Zposition Xrotation Yrotation Zrotation
						End Site
						{
							OFFSET 0.000000 -0.264678 0.270086
						}
					}
					JOINT eye_R
					{
						OFFSET -0.289572 0.288213 1.110091
						CHANNELS 6 Xposition Yposition Zposition Xrotation Yrotation Zrotation
						End Site
						{
							OFFSET -0.019134 -0.016450 0.377312
						}
					}
					JOINT eye_L
					{
						OFFSET 0.288913 0.287658 1.110401
						CHANNELS 6 Xposition Yposition Zposition Xrotation Yrotation Zrotation
						End Site
						{
							OFFSET 0.019152 -0.016427 0.377312
						}
					}
				}
			}
		}
	}
}
MOTION
Frames: 1
Frame Time: 0.041667
0.000000 8.742656 0.131730 -0.000000 0.000000 -0.000000 1.013500 -0.080286 -0.082294 0.000000 -0.000000 -0.342640 -0.000001 0.000001 1.100926 -0.000002 0.000000 -0.000000 -0.000001 0.000000 -0.000000 -1.013500 -0.080287 -0.082294 -0.000001 0.000000 -0.508828 -0.000000 -0.000000 -0.568564 -0.000002 0.000000 -0.000000 -0.000003 0.000000 0.000000 0.000000 1.460830 -0.232459 -0.000000 0.000000 -0.000000 -0.000000 0.000000 -0.000000 -0.268666 2.469748 0.772591 0.000000 -0.000001 -0.569406 0.000000 0.000001 0.850838 -0.000003 0.000001 1.404179 -0.000001 0.000001 0.000001 0.189472 -0.186682 0.653440 -0.000000 0.000000 0.000001 -0.000001 -0.000001 -0.000002 -0.444126 -0.636957 0.569503 0.000000 -0.000000 0.000001 -0.233164 -0.434067 0.929419 0.000002 -0.000002 0.000003 0.268666 2.469748 0.772591 0.000001 0.000001 -0.464612 0.000000 -0.000000 -0.490879 -0.000003 -0.000003 -0.472666 0.000001 -0.000001 -0.000001 -0.189466 -0.186596 0.653489 0.000002 0.000000 0.000002 -0.000000 0.000001 0.000001 0.444126 -0.636956 0.569504 0.000002 0.000001 0.000004 0.233163 -0.434065 0.929421 0.000002 0.000002 -0.000000 0.000000 3.188242 0.135066 -0.000000 0.000000 -0.000000 -0.000000 0.000000 -0.000000 0.000000 -0.033922 0.494627 -0.000000 0.000000 -0.000000 -0.289572 0.288212 1.110091 0.000000 -0.000000 0.000002 0.288912 0.287658 1.110401 0.000000 -0.000000 0.000001
